<svg height="145px" x-width="153px" x-height="192px" viewBox="0 0 153 192" version="1.1" xmlns="http://www.w3.org/2000/svg" xmlns:xlink="http://www.w3.org/1999/xlink"> <g id="Page-1" stroke="none" stroke-width="1" fill="none" fill-rule="evenodd" stroke-linecap="round" stroke-linejoin="round"> <g id="desktop-example-3-" transform="translate(-555.000000, -3302.000000)" stroke="#000000" stroke-width="2.90999991"> <g id="Group-2" transform="translate(557.000000, 3304.000000)"> <path d="M41.6194756,34.8865979 L16.2430635,34.8865979 C13.1595609,34.8948985 10.6596041,37.3781506 10.6428571,40.4493838 L10.6428571,182.422015 C10.651241,185.499186 13.1536343,187.991649 16.2430635,188 L143.399794,188 C146.489223,187.991649 148.991616,185.499186 149,182.422015 L149,40.4493838 C148.983253,37.3781506 146.483296,34.8948985 143.399794,34.8865979 L121.105784,34.8865979" id="Shape-Copy" fill="#FFFFFF"></path> <line x1="83.2077922" y1="31.0103093" x2="83.2077922" y2="188" id="Shape-Copy-2"></line> <path d="M30.9766185,24.2268041 L5.6002064,24.2268041 C2.51670377,24.2351047 0.0167469662,26.7183568 0,29.78959 L0,171.762221 C0.00838384335,174.839392 2.51077717,177.331856 5.6002064,177.340206 L132.756936,177.340206 C135.846366,177.331856 138.348759,174.839392 138.357143,171.762221 L138.357143,29.78959 C138.340396,26.7183568 135.840439,24.2351047 132.756936,24.2268041 L110.462927,24.2268041" id="Shape-Copy-3" fill="#FFFFFF"></path> <line x1="71.5974026" y1="22.2886598" x2="71.5974026" y2="179.278351" id="Shape-Copy-4"></line> <path d="M44.162598,0 L31.9285714,24.7481202 L51.5183065,51.3608247 L71.5974026,21.7432114 C71.5974026,21.7432114 43.8108697,13.4681551 44.162598,0 Z" id="Shape-Copy-5" fill="#FFFFFF"></path> <path d="M99.0322072,0 L111.266234,24.7481202 L91.6764987,51.3608247 L71.5974026,21.7432114 C71.5974026,21.7432114 99.3839355,13.4681551 99.0322072,0 Z" id="Shape-Copy-6" fill="#FFFFFF"></path> <line x1="44.5064935" y1="0" x2="98.6883117" y2="0" id="Shape-Copy-7"></line> </g> </g> </g> </svg>