<svg width="143px" height="36px" viewBox="0 0 143 36" version="1.1" xmlns="http://www.w3.org/2000/svg" xmlns:xlink="http://www.w3.org/1999/xlink">
            <g id="Page-1" stroke="none" stroke-width="1" fill="none" fill-rule="evenodd">
                <g id="SVG-Layer" transform="translate(0.500000, -0.500000)" fill="#FFFFFF" fill-rule="nonzero">
                    <path d="M18.59,1.16 C17.17,0.91 8.05,0.16 3.23,6.56 C0.91,9.46 2.57,13 7.8,13 C2.9,14.82 -0.83,18.14 0.16,22 C1.54,27.4 7.55,27.15 12.28,26.65 C20.69,25.77 26.47,17.86 27.8,16.86 C29.8,17.86 30.8,19.68 29.96,20.86 C27.71,20.95 21.82,21.44 22.07,24.51 C22.32,27.58 31.62,27.25 36.76,23.85 C37.824177,24.2445863 38.8326088,24.7756937 39.76,25.43 C40.51,26.01 41.33,25.51 41.42,23.02 C40.2942184,22.1516755 38.9379757,21.6335213 37.52,21.53 C37.85,19.87 38.43,17.88 33.78,14.47 C33.04,14.06 33.12,13.56 33.7,13.14 C34.28,12.72 33.62,11.73 32.04,11.24 C30.46,10.75 27.04,10.99 25.98,12.24 C25.4236893,13.1429994 25.5602343,14.3098393 26.31,15.06 C25.48,16.47 21.31,22.53 15.19,23.06 C12.95,23.31 10.43,22.98 10.63,19.74 C10.79,17 14.94,14.6 16.44,13.93 C17.35,13.52 17.18,12.19 16.02,11.86 C14.86,11.53 12.12,11.36 11.96,9.2 C11.8,7.04 14.53,5.47 18.96,4.64 C20.29,4.47 20.29,1.57 18.63,1.15 L18.59,1.16 Z M29.59,23.4 C28.18,23.15 24.53,23.15 24.53,24.32 C24.53,25.49 28.53,25.23 29.59,23.4 Z" id="Shape"></path>
                    <path d="M53.94,15.52 C52.61,15.35 48.38,14.85 47.8,18.92 C47.22,22.99 50.54,23.32 51.86,23.15 C53.18,22.98 55.93,21.58 55.93,16.68 C55.85,14.19 56.84,13.28 59,13.19 C61.16,13.1 62.16,13.61 62.16,15.85 C62.16,18.09 62.24,34.94 62.24,35.68 C60.66,35.68 56.51,35.85 54.85,36.1 C55.02,32.1 55.52,24.1 55.52,22.82 C54.0220179,25.2672957 51.3280999,26.7249114 48.46,26.64 C44.56,26.56 40.99,24.73 41.24,19.58 C41.49,14.43 46.72,10.87 54.77,12 C56.18,12.25 56.35,15.74 53.94,15.49 L53.94,15.52 Z" id="Path"></path>
                    <path d="M140.33,23.32 C138.739192,23.3008362 137.151642,23.4686533 135.6,23.82 C133.766851,24.1835927 131.882851,24.2107006 130.04,23.9 C129.343355,23.7587239 128.745745,23.3146861 128.409434,22.6884522 C128.073123,22.0622184 128.033015,21.3187813 128.3,20.66 C128.8,19.58 130.46,19 131.45,18.66 C131.863919,18.5135065 132.13386,18.1141444 132.115485,17.6754509 C132.097111,17.2367574 131.79472,16.8613672 131.37,16.75 C130.29,16.5 128.8,16.09 128.8,15.18 C128.8,14.27 130.12,13.02 134.27,13.35 C135.85,13.52 135.44,10.78 133.69,10.35 C129.969163,10.3755093 126.29444,11.1758429 122.9,12.7 C121,13.7 120.66,16.43 125.73,17.34 C122.57,17.59 120.41,20.34 120.5,21.58 C120.478132,22.1418825 120.535359,22.7040496 120.67,23.25 C119.76648,23.7850734 118.713961,24.0131192 117.67,23.9 C116.01,23.82 113.52,21.83 114.06,18.42 C114.54,15.42 115.39,15.77 115.8,15.6 C116.268888,15.6482791 116.736193,15.494942 117.085321,15.178246 C117.43445,14.86155 117.632479,14.4113609 117.63,13.94 C117.63,12.78 117.92,12.49 117,12.49 C116.08,12.49 110.41,13.32 106.17,12.36 C105.921314,11.4851871 105.289206,10.7704166 104.451369,10.4166201 C103.613533,10.0628237 102.660433,10.1082025 101.86,10.54 C99.7,11.7 100.28,14.36 102.77,15.02 L103.36,15.17 C102.6,18.31 100.84,23.55 98.04,24.07 C96.46,24.4 95.47,23.32 95.63,20.75 C95.79,18.18 96.3,13.36 96.3,13.36 C96.46,11.29 88.91,11.36 88.99,13.94 L88.99,22.07 C89.0013492,22.3106262 89.0416393,22.5490096 89.11,22.78 C87.2,24.27 82.98,24.61 83.27,21.24 L84.27,13.86 C84.52,11.7 77.63,10.95 77.47,13.94 L77.39,19.94 C77.3639703,20.3395765 77.3639703,20.7404235 77.39,21.14 C76.8411714,22.2648702 75.7461084,23.0226992 74.5,23.14 C72.59,23.23 71.5,22.98 71.68,20.57 C71.86,18.16 72.43,13.57 72.43,13.57 C72.59,11.41 65.7,11.41 65.54,13.32 C65.46,14.9 65.04,20.71 64.96,22.53 C64.88,24.35 67.7,26.6 71.68,26.43 C75.19,26.29 76.45,25.3 77.89,23.36 C78.59,25.07 80.19,26.58 83.63,26.43 C85.9236209,26.6465739 88.2071827,25.9250694 89.96,24.43 C90.9711502,25.7919532 92.5541724,26.6111395 94.25,26.65 C97.99,26.82 100.81,26.48 102.8,22.58 C104.058117,20.4249353 104.972438,18.0868401 105.51,15.65 C107.212262,15.9938511 108.943424,16.1746688 110.68,16.19 C108.68,17.6 107.86,18.76 108.03,21.19 C108.11,22.69 109.11,26.53 115.5,26.59 C119.11,26.59 120.77,25.84 121.91,24.99 C123.44,26.1 126.63,26.9 133.26,26.34 C135.740859,26.0744414 138.239629,26.0175751 140.73,26.17 C142.14,26.25 142.22,23.43 140.31,23.35 L140.33,23.32 Z" id="Path"></path>
                    <path d="M92.86,9.72 C94.94,9.72 96.62,8.31 96.62,6.56 C96.305892,4.7314659 94.7203169,3.39503876 92.865,3.39503876 C91.0096831,3.39503876 89.424108,4.7314659 89.11,6.56 C89.2846823,8.46203012 90.955888,9.87029941 92.86,9.72 Z" id="Path"></path>
                </g>
            </g>
        </svg>