<svg height="145px" x-width="141px" x-height="178px" viewBox="0 0 141 178" version="1.1" xmlns="http://www.w3.org/2000/svg" xmlns:xlink="http://www.w3.org/1999/xlink"> <g id="Page-1" stroke="none" stroke-width="1" fill="none" fill-rule="evenodd"> <g id="desktop-example-3-" transform="translate(-1410.000000, -3303.000000)" stroke="#000000" stroke-width="2.99999982"> <g id="Group-4" transform="translate(1412.000000, 3305.000000)"> <path d="M69.7971199,27 L118.20288,27 C119.195402,27 120,27.804598 120,28.7971199 L120,66.5359999 C120,66.9598484 119.850192,67.3700571 119.577043,67.6941517 L108.058526,81.3610319 C107.717063,81.7661818 107.214214,82 106.684363,82 L85.323836,82 C84.8833514,82 84.4582069,81.838225 84.1291474,81.5453998 L68.6024313,67.7284025 C68.2192173,67.387386 68,66.8988596 68,66.3858828 L68,28.7971199 C68,27.804598 68.804598,27 69.7971199,27 Z" id="Path-53-Copy" fill="#FFFFFF"></path> <line x1="100" y1="38" x2="48" y2="38" id="Path-54-Copy-4"></line> <path d="M41,66 L3.32103956,81.0068322 C0.612288403,82.0856804 -0.747955722,85.1225654 0.250587361,87.8619372 C21.1830181,145.287312 34.7661557,174 41,174" id="Path-52-Copy" fill="#FFFFFF"></path> <path d="M40,174 L40,1.79711986 C40,0.804597969 40.804598,8.3979737e-15 41.7971199,0 L116.269141,0 C117.261663,1.81607813e-15 118.066261,0.804597969 118.066261,1.79711986 L118.066261,12.5783133 L118.066261,12.5783133 L136.915385,70.8444478 C137.007248,71.1284134 137.026942,71.4307869 136.97269,71.7242693 L118.338083,172.529556 C118.180567,173.38165 117.437435,174 116.570904,174 L40,174 L40,174 Z" id="Path-51-Copy" fill="#FFFFFF"></path> <path d="M55.7971199,39 L104.20288,39 C105.195402,39 106,39.804598 106,40.7971199 L106,78.5359999 C106,78.9598484 105.850192,79.3700571 105.577043,79.6941517 L94.0585256,93.3610319 C93.7170632,93.7661818 93.2142144,94 92.6843625,94 L71.323836,94 C70.8833514,94 70.4582069,93.838225 70.1291474,93.5453998 L54.6024313,79.7284025 C54.2192173,79.387386 54,78.8988596 54,78.3858828 L54,40.7971199 C54,39.804598 54.804598,39 55.7971199,39 Z" id="Path-53-Copy-2" fill="#FFFFFF"></path> <line x1="107" y1="50" x2="55" y2="50" id="Path-54-Copy-5"></line> </g> </g> </g> </svg>