<svg width="308px" height="40px" viewBox="0 0 308 40" version="1.1" xmlns="http://www.w3.org/2000/svg" xmlns:xlink="http://www.w3.org/1999/xlink">
              <g id="Page-1" stroke="none" stroke-width="1" fill="none" fill-rule="evenodd">
                  <g id="SVG-Layer" transform="translate(-0.500000, 0.000000)" fill="#FFFFFF" fill-rule="nonzero">
                      <path d="M54.44,17.7 L54.44,13.51 C54.44,11.21 53.74,10.27 52.59,10.27 C51.03,10.27 50.08,12.2 49.87,17.7 L54.44,17.7 L54.44,17.7 Z M75.68,16.06 C75.68,14.13 74.48,13.51 73.21,13.51 C72.35,13.51 71.28,13.97 70.87,14.25 L70.87,27.8 C70.87,29.44 71.48,29.94 72.84,30.18 L72.84,30.63 L61.52,30.63 L61.52,30.18 C62.3,30.02 63.33,29.48 63.33,27.68 L63.33,12.58 C63.33,10.78 62.83,10.28 61.53,10.04 L61.53,9.58 L71.07,9.58 L70.82,13.73 C72.14,11.27 74.45,9.17 77.62,9.17 C80.42,9.17 83.22,10.49 83.22,15.25 L83.22,27.68 C83.22,29.03 83.42,29.9 84.78,30.18 L84.78,30.63 L74.08,30.63 L74.08,30.18 C75.06,29.94 75.68,29.24 75.68,27.68 L75.68,16.06 Z M87.04,12.57 C87.04,11.22 86.63,10.27 85.31,10.03 L85.31,9.58 L94.57,9.58 L94.57,27.67 C94.57,28.98 95.07,30.01 96.43,30.17 L96.43,30.62 L85.19,30.62 L85.19,30.17 C86.55,30.01 87.04,28.98 87.04,27.67 L87.04,12.57 Z M94.78,4.2 C94.7470865,6.42343135 92.9235635,8.20226018 90.7,8.18 C89.6374031,8.18798283 88.6153,7.77282592 87.8592338,7.02614015 C87.1031676,6.27945438 86.6752831,5.2626137 86.67,4.2 C86.7029011,2.00259472 88.5024121,0.243271318 90.7,0.26 C92.9104379,0.232025632 94.7308084,1.98993248 94.78,4.2 Z M110.75,16.06 C110.75,14.13 109.55,13.52 108.28,13.52 C107.42,13.52 106.34,13.97 105.93,14.25 L105.93,27.8 C105.93,29.45 106.51,29.94 107.91,30.18 L107.91,30.64 L96.84,30.64 L96.84,30.18 C97.58,30.02 98.4,29.48 98.4,27.68 L98.4,12.58 C98.4,10.78 97.9,10.28 96.59,10.04 L96.59,9.59 L106.14,9.59 L105.89,13.73 C107.21,11.27 109.51,9.17 112.69,9.17 C115.49,9.17 118.29,10.49 118.29,15.25 L118.29,27.68 C118.29,29.03 118.49,29.9 119.84,30.18 L119.84,30.63 L109.14,30.63 L109.14,30.18 C110.14,29.94 110.74,29.24 110.74,27.68 L110.74,16.06 L110.75,16.06 Z M131.7,15.94 C131.7,11.96 131.25,10.19 129.89,10.19 C128.45,10.19 127.87,11.96 127.87,15.94 L127.87,16.59 C127.87,20.57 128.45,22.34 129.89,22.34 C131.25,22.34 131.69,20.57 131.69,16.59 L131.69,15.94 L131.7,15.94 Z M178.8,26.94 C178.1,28.74 175.7,30.87 172,30.87 C168.13,30.87 167.02,28.37 167.02,25.91 L167.02,10.89 L165.17,10.89 L165.17,10.39 C167.93,9.95 171.92,7.65 174.1,5.27 L174.55,5.27 L174.55,9.57 L178.67,9.57 L178.67,10.89 L174.55,10.89 L174.55,25.29 C174.55,26.69 175.21,27.51 176.53,27.51 C177.43,27.51 178.13,27.06 178.43,26.69 L178.79,26.93 L178.8,26.94 Z M213.74,16.06 C213.74,14.13 212.54,13.52 211.27,13.52 C210.4,13.52 209.33,13.97 208.92,14.25 L208.92,27.8 C208.92,29.45 209.5,29.94 210.9,30.18 L210.9,30.64 L199.7,30.64 L199.7,30.18 C200.48,30.02 201.39,29.48 201.39,27.68 L201.39,12.58 C201.39,10.78 200.89,10.28 199.58,10.04 L199.58,9.59 L209.13,9.59 L208.88,13.73 C210.2,11.27 212.5,9.18 215.68,9.18 C218.48,9.18 221.27,10.48 221.27,15.25 L221.27,27.68 C221.27,29.03 221.47,29.9 222.83,30.18 L222.83,30.63 L212.13,30.63 L212.13,30.18 C213.12,29.94 213.73,29.24 213.73,27.68 L213.73,16.06 L213.74,16.06 Z M236.58,25.37 C236.58,27.17 235.02,27.96 233.98,27.96 C231.88,27.96 230.82,26.48 230.82,24.06 L230.82,13.68 C230.82,11.42 232.34,10.48 233.86,10.48 C235.18,10.48 236.58,11.46 236.58,13.35 L236.58,25.37 L236.58,25.37 Z M3.9,5.31 C3.9,3.58 3.24,2.15 0.53,1.94 L0.53,1.24 L23.83,1.24 L23.83,8.8 L23.04,8.8 C20.44,4.53 19.58,2.48 16.87,2.48 L12.47,2.48 L12.47,15.4 L14.27,15.4 C17.24,15.4 18.14,14.13 19.62,10.56 L20.28,10.56 L20.28,21.39 L19.62,21.39 C18.14,17.82 17.24,16.55 14.27,16.55 L12.47,16.55 L12.47,27.14 C12.47,28.62 13,29.39 15.22,29.39 L16.46,29.39 C20.74,29.39 21.97,26.56 24.73,21.89 L25.47,21.89 L24.65,30.63 L0.53,30.63 L0.53,29.93 C3.24,29.73 3.9,28.29 3.9,26.56 L3.9,5.31 Z M246.1,30.62 L246.1,30.17 C244.32,29.89 244.12,29.02 244.12,27.67 L244.12,1.25 L234.32,1.25 L234.32,1.78 C236.34,2.03 236.58,2.11 236.58,3.22 L236.58,10.77 C235.84,9.9 234.15,9.17 231.98,9.17 C227.45,9.17 222.75,12.69 222.75,20.49 C222.75,27.71 225.92,31.12 230.49,31.12 C233.95,31.12 235.89,29.02 236.59,27.55 L236.59,30.62 L246.09,30.62 L246.1,30.62 Z M298.2,25.37 C298.2,27.17 296.64,27.96 295.6,27.96 C293.5,27.96 292.44,26.48 292.44,24.06 L292.44,13.68 C292.44,11.42 293.96,10.48 295.48,10.48 C296.8,10.48 298.2,11.46 298.2,13.35 L298.2,25.37 L298.2,25.37 Z M307.7,30.62 L307.7,30.17 C305.94,29.89 305.73,29.02 305.73,27.67 L305.73,1.25 L295.93,1.25 L295.93,1.78 C297.95,2.03 298.2,2.11 298.2,3.22 L298.2,10.77 C297.46,9.9 295.77,9.17 293.59,9.17 C289.06,9.17 284.37,12.69 284.37,20.49 C284.37,27.71 287.54,31.12 292.11,31.12 C295.56,31.12 297.5,29.02 298.2,27.55 L298.2,30.62 L307.7,30.62 L307.7,30.62 Z M257.12,27.51 L257.12,17.78 C256.72,19.96 253.54,20.45 253.54,24.22 L253.54,24.39 C253.54,26.24 254.82,27.59 256.42,27.59 C256.62,27.59 256.88,27.55 257.12,27.51 L257.12,27.51 Z M276.1,15.61 L276.1,26.93 C276.1,28.94 276.67,29.76 278.44,30.17 L278.44,30.63 L266.88,30.63 L266.88,30.17 C267.62,30.01 268.56,29.47 268.56,27.67 L268.56,12.57 C268.56,11.22 268.07,10.27 266.76,10.03 L266.76,9.58 L276.26,9.58 C276.1,11.55 276.1,12.9 276.1,15.61 L276.1,15.61 Z M284.9,13.11 C284.9,15.32 283.05,17.08 280.83,17.08 C279.767403,17.0879828 278.7453,16.6728259 277.989234,15.9261402 C277.233168,15.1794544 276.805283,14.1626137 276.8,13.1 C276.8,10.93 278.6,9.17 280.83,9.17 C283.06,9.17 284.9,10.93 284.9,13.1 L284.9,13.11 Z M124.88,22.48 C124.55,22.8 124.29,23.23 124.29,23.78 C124.29,24.43 124.66,25.05 126.19,25.05 L134.25,25.13 C139.56,25.17 141.13,28.13 141.13,30.58 C141.13,37.03 133.72,39.61 128.41,39.61 C121.66,39.61 119.27,37.61 119.27,35.22 C119.27,33.78 120.71,32.31 123.67,32.31 C124.09,32.31 124.46,32.35 124.91,32.39 L124.95,32.51 C124.239142,33.0812811 123.818001,33.9382123 123.8,34.85 C123.8,36.58 125.44,38.34 129.8,38.34 C134.13,38.34 136.84,36.58 136.84,34.61 C136.84,32.96 135.69,32.27 132.69,32.14 L126.59,31.86 C122.15,31.66 120.46,29.52 120.46,27.06 C120.46,25.36 121.86,23.14 124.38,22.26 C122.02,21.11 120.38,19.11 120.38,16.22 C120.38,11.87 124.58,9.17 129.85,9.17 C131.49,9.17 133.05,9.45 134.45,9.95 C135.03,10.03 135.57,10.03 136.1,10.03 C138.16,10.03 140.06,9.62 141.9,8.8 L141.9,12.37 L141.66,12.37 C139.616073,11.9431301 137.617154,11.3236994 135.69,10.52 C137.83,11.79 139.23,13.72 139.23,16.22 C139.23,20.65 135.03,23.4 129.85,23.4 C128.09,23.4 126.37,23.1 124.88,22.48 L124.88,22.48 Z M149.57,17.21 C147.22,15.53 145.29,13.19 145.29,10.07 C145.29,4.69 150.06,0.84 156.98,0.84 C159.98,0.84 162.82,1.54 164.71,2.24 L164.51,9.17 L163.69,9.17 C161.59,4.61 160.15,2.15 157.02,2.15 C154.63,2.15 152.86,3.75 152.86,6.29 C152.86,8.02 154.01,9.45 155.66,10.64 L160.06,13.88 C163.44,16.35 165.54,18.23 165.54,21.64 C165.54,27.59 159.78,31.08 153.89,31.08 C150.19,31.08 146.73,30.01 145.04,29.07 L144.71,21.23 L145.53,21.23 C148.09,26.69 150.27,29.76 153.73,29.76 C156.03,29.76 157.84,28.33 157.84,25.62 C157.84,23.52 156.24,22.05 154.14,20.53 L149.57,17.21 L149.57,17.21 Z M61.44,23.81 C60.33,27.71 57.24,31.08 51.69,31.08 C45.35,31.08 41.89,26.44 41.89,21.07 C41.89,14.29 46,9.17 52.76,9.17 C57.69,9.17 61.4,12.2 61.4,18.19 L61.4,19.01 L49.87,19.01 C49.87,24.43 52.51,26.56 55.43,26.56 C57.41,26.56 59.46,25.82 60.99,23.61 L61.44,23.81 L61.44,23.81 Z M200.44,28.49 C198.819521,30.1890184 196.567801,31.1411125 194.22,31.12 C191.63,31.12 190.27,29.92 189.99,28.16 C188.837765,30.0248112 186.781333,31.1368078 184.59,31.08 C181.3,31.08 178.99,28.86 178.99,25.74 C178.99,22.01 181.55,20.66 185.62,19.59 C188.92,18.73 190.11,17.58 190.11,15.07 L190.11,14.91 C190.11,12.33 188.01,10.64 185.41,10.64 C184.755229,10.6422203 184.104551,10.7433619 183.48,10.94 C185.384887,11.0772503 186.878376,12.631169 186.94,14.54 C186.926937,15.5283955 186.518921,16.470469 185.806932,17.1561573 C185.094944,17.8418456 184.138187,18.2141305 183.15,18.19 C182.214017,18.1982329 181.314405,17.8279856 180.65537,17.1633017 C179.996335,16.4986178 179.633779,15.5958785 179.65,14.66 C179.65,11.26 184.31,9.16 189.45,9.16 C194.43,9.16 197.55,11.14 197.55,14.79 C197.55,14.83 197.55,19.63 197.48,26.97 C197.48,27.83 197.88,28.53 198.79,28.53 C199.16,28.53 199.66,28.41 200.19,28.13 L200.44,28.49 L200.44,28.49 Z M190.08,27.73 L190.08,18 C189.68,20.18 186.5,20.67 186.5,24.44 L186.5,24.61 C186.5,26.46 187.78,27.81 189.38,27.81 C189.58,27.81 189.84,27.77 190.08,27.73 L190.08,27.73 Z M267.61,28.49 C265.991906,30.1864716 263.744335,31.1383417 261.4,31.12 C258.8,31.12 257.45,29.92 257.16,28.16 C256.007765,30.0248112 253.951333,31.1368078 251.76,31.08 C248.47,31.08 246.16,28.86 246.16,25.74 C246.16,22.01 248.72,20.66 252.79,19.59 C256.09,18.73 257.29,17.58 257.29,15.07 L257.29,14.91 C257.29,12.33 255.19,10.64 252.59,10.64 C251.931875,10.6412107 251.27775,10.742364 250.65,10.94 C252.554887,11.0772503 254.048376,12.631169 254.11,14.54 C254.096899,15.5266214 253.690259,16.4671403 252.980452,17.1525361 C252.270644,17.8379319 251.316476,18.2114212 250.33,18.19 C249.394017,18.1982329 248.494405,17.8279856 247.83537,17.1633017 C247.176335,16.4986178 246.813779,15.5958785 246.83,14.66 C246.83,11.26 251.48,9.16 256.63,9.16 C261.6,9.16 264.73,11.14 264.73,14.79 C264.73,14.83 264.73,19.63 264.65,26.97 C264.65,27.83 265.06,28.53 265.97,28.53 C266.34,28.53 266.83,28.41 267.37,28.13 L267.61,28.49 L267.61,28.49 Z M36.37,30.63 L30.28,30.63 L24.56,13.03 C23.94,11.18 23.24,10.31 22.38,10.03 L22.38,9.58 L35.26,9.58 L35.26,10.03 C33.04,10.4 32.17,11.26 32.79,13.27 L36.7,26.1 L39.91,14.57 C40.2,13.51 40.36,12.69 40.36,11.91 C40.36,10.51 39.42,10.18 38.22,10.01 L38.22,9.57 L44.77,9.57 L44.77,10.02 C43.62,10.42 42.79,11 41.64,14.41 L36.37,30.61 L36.37,30.63 Z" id="Shape"></path>
                  </g>
              </g>
          </svg>