<svg width="67px" height="34px" viewBox="0 0 67 34" version="1.1" xmlns="http://www.w3.org/2000/svg" xmlns:xlink="http://www.w3.org/1999/xlink">
            <g id="Page-1" stroke="none" stroke-width="1" fill="none" fill-rule="evenodd">
                <g id="SVG-Layer" transform="translate(0.000000, -0.500000)" fill="#FFFFFF" fill-rule="nonzero">
                    <path d="M63.9,25.7 C65.2,23.3 65.8,20.7 65.8,18 C66.1,8.9 58.9,1.3 49.8,1 C40.7,0.7 33.1,7.9 32.8,17 C32.8,16.5 32.8,16.1 32.8,15.6 L17.6,15.6 L17.6,22.5 L22.5,22.7 C21,24.5 18.8,25.5 16.5,25.5 C12.4,25.5 9.1,22.2 9,18.1 L9,18 C9.1,13.9 12.4,10.6 16.5,10.5 C19.2,10.6 21.7,12.1 23.1,14.4 L30.8,10 C26.4,2.1 16.3,-0.7 8.4,3.7 C0.5,8.1 -2.3,18.1 2.1,26.1 C5,31.3 10.5,34.5 16.4,34.5 L16.5,34.5 C25.2,34.5 32.4,27.8 33,19.1 C33.5,27.8 40.6,34.5 49.3,34.5 C52.4,34.5 55.4,33.7 58,32 L60,34 L66.1,27.9 L63.9,25.7 Z M56.9,19.1 L55.3,17.7 L49.5,23.8 L51.2,25.4 C50.6,25.5 50,25.6 49.3,25.6 C45.1,25.6 41.8,22.2 41.8,18.1 C41.8,13.9 45.2,10.6 49.3,10.6 C53.4,10.6 56.8,14 56.8,18.1 C56.9,18.4 56.9,18.7 56.9,19.1 L56.9,19.1 Z" id="Shape"></path>
                </g>
            </g>
        </svg>