<svg xmlns="http://www.w3.org/2000/svg" width="214.114" height="30.825" viewBox="0 0 214.114 126.825">
  <g id="logo" transform="translate(0.002 -0.001)">
    <g id="Layer_1" data-name="Layer 1" transform="translate(-0.002 0.001)">
      <path id="Path_57" data-name="Path 57" d="M213.658,162.427c-.117.223-.223.451-.323.685a8.7,8.7,0,0,1-10.753,5.015c-22.031-7.422-42.418-17.913-60.386-32.8-4.34-3.594-8.558-7.355-12.6-11.283a26.021,26.021,0,0,0-19.384-7.773c-3.343.067-6.686-.1-10.029.173a24.5,24.5,0,0,0-15.5,7.355c-20.7,20.526-45.2,34.79-72.661,44.178-5.015,1.716-9.622-.373-11.556-5.265h0A5.806,5.806,0,0,1,0,160.561v-.329a8.636,8.636,0,0,1,2.786-6.491,14.4,14.4,0,0,1,5.622-2.869c10.536-3.115,21.078-6.274,31.413-9.946,9.567-3.4,17.428-9.522,23.88-17.35q7.839-9.5,15.417-19.228c5.572-7.16,12.882-10.475,22.1-10.029,4.1.206,8.2.15,12.291,0a24.235,24.235,0,0,1,20.933,9.539c5.165,6.48,10.3,12.982,15.551,19.39a60.353,60.353,0,0,0,29.608,19.73c8.636,2.658,17.272,5.416,25.936,7.878,4.04,1.148,7.043,3.12,8.413,7.193a8.514,8.514,0,0,1-.3,4.379ZM111.991,105.6a5.015,5.015,0,1,0-5.015,5.1,5.015,5.015,0,0,0,5.015-5.1Z" transform="translate(0.002 -41.75)" fill="#fff"/>
      <path id="Path_58" data-name="Path 58" d="M178.85,47.561h-4.781c-.741-7.917,0-15.255,6.3-20.95.618-.557,1.181-1.176,1.772-1.766,4.786-4.786,5.07-10.915.758-15.835a12.258,12.258,0,0,0-21.407,7.745,4.04,4.04,0,0,1-.708,2.5,2.932,2.932,0,0,1-2.518.669,3.3,3.3,0,0,1-1.582-2.346c-.657-8.268,6.2-16.464,14.464-17.434,9.99-1.187,18.22,5.054,19.618,14.988a13.929,13.929,0,0,1-3.588,11.611c-1.114,1.248-2.312,2.413-3.516,3.571a14.793,14.793,0,0,0-4.82,11.572C178.894,43.722,178.85,45.588,178.85,47.561Z" transform="translate(-69.364 -0.001)" fill="#fff"/>
    </g>
  </g>
</svg>
