<svg height="145px" x-width="153px" x-height="200px" viewBox="0 0 153 200" version="1.1" xmlns="http://www.w3.org/2000/svg" xmlns:xlink="http://www.w3.org/1999/xlink"> <g id="Page-1" stroke="none" stroke-width="1" fill="none" fill-rule="evenodd"> <g id="desktop-example-3-" transform="translate(-984.000000, -3289.000000)" stroke-width="2.69999993"> <g id="Group-3" transform="translate(986.000000, 3291.000000)"> <line x1="97.8842868" y1="67.0608519" x2="52.2932692" y2="67.0608519" id="Path-54" stroke="#000000"></line> <line x1="101.680722" y1="72.9697038" x2="48.7115385" y2="72.9697038" id="Path-54-Copy" stroke="#000000"></line> <path d="M12.0717593,171.5 L0,164.123656 C7.42877493,153.981183 11.9169931,147.373208 13.4646546,144.299731 C15.7861467,139.689516 27.3936075,103.268817 33.4294872,91.2822581 C37.4534069,83.2912186 43.7988189,75.9148746 52.4657229,69.1532258 C40.3939637,44.8727599 35.5962132,32.578853 38.0724715,32.2715054 C41.786859,31.8104839 44.5726496,30.4274194 46.8941417,25.3561828 C48.4418032,21.9753584 49.2156339,13.5232975 49.2156339,0 L56.1801104,0 C59.8944979,12.2939068 66.2399098,18.4408602 75.2163462,18.4408602" id="Path-7" stroke="#010101"></path> <path d="M85.8554131,171.5 L73.7836538,164.123656 C81.2124288,153.981183 85.700647,147.373208 87.2483084,144.299731 C89.5698006,139.689516 101.177261,103.268817 107.213141,91.2822581 C111.237061,83.2912186 117.582473,75.9148746 126.249377,69.1532258 C114.177618,44.8727599 109.379867,32.578853 111.856125,32.2715054 C115.570513,31.8104839 118.356303,30.4274194 120.677796,25.3561828 C122.225457,21.9753584 122.999288,13.5232975 122.999288,0 L129.963764,0 C133.678152,12.2939068 140.023564,18.4408602 149,18.4408602" id="Path-7-Copy" stroke="#010101" transform="translate(111.391827, 85.750000) scale(-1, 1) translate(-111.391827, -85.750000) "></path> <polyline id="Path-8" stroke="#000000" stroke-linecap="round" points="34.4344495 109.529412 11.4615385 180.850283 35.8173077 185.911765"></polyline> <polyline id="Path-8-Copy" stroke="#000000" stroke-linecap="round" transform="translate(128.225962, 149.161765) scale(-1, 1) translate(-128.225962, -149.161765) " points="139.020988 110.970588 116.048077 182.29146 140.403846 187.352941"></polyline> <path d="M37.25,186.632353 C51.1689712,192.661825 64.2431735,195.78062 76.4726069,195.988736 C88.7020402,196.196853 101.655082,193.520981 115.331731,187.961121" id="Path-9" stroke="#000000" stroke-linecap="round"></path> </g> </g> </g> </svg>