<svg height="145px" x-width="222px" x-height="156px" viewBox="0 0 222 156" version="1.1" xmlns="http://www.w3.org/2000/svg" xmlns:xlink="http://www.w3.org/1999/xlink"> <g id="Page-1" stroke="none" stroke-width="1" fill="none" fill-rule="evenodd"> <g id="desktop-example-3-" transform="translate(-1847.000000, -3324.000000)" stroke="#000000" stroke-width="2.8"> <polyline id="Path-32-Copy-2" points="1858 3455 1858 3478 1865 3478 1865 3455"></polyline> <polyline id="Path-32-Copy-3" points="2003 3455 2003 3478 2010 3478 2010 3455"></polyline> <polyline id="Path-30-Copy" points="1901 3384 2065 3384 2016.21399 3428.14033 2015.36842 3461"></polyline> <polyline id="Path-31-Copy" points="2018 3462 2067 3414.4246 2067 3383.47693 2067 3326 2060.94546 3326 2060.94546 3384.35064"></polyline> <polyline id="Path-35-Copy-2" points="1908 3384 1908 3328 1902 3328 1902 3384"></polyline> <path d="M1908,3341 C1952.18565,3325 2003.51899,3325 2062,3341" id="Path-36-Copy"></path> <line x1="1902.1765" y1="3384" x2="1850.08" y2="3431.75615" id="Path-38-Copy"></line> <path d="M1849,3462 L2017,3462 L2017,3427.37991 C1970.73678,3423.12664 1937.81655,3421 1918.23931,3421 C1888.87346,3421 1858.56098,3424.95991 1849,3430.54089 C1849,3437.9822 1849,3448.46857 1849,3462 Z" id="Path-29-Copy" fill="#FFFFFF"></path> <path d="M1978.38095,3358.70318 C1959.39683,3356.30035 1945.77778,3355.49941 1937.52381,3356.30035 C1925.14286,3357.50177 1914,3371.91873 1914,3383.93286 C1914,3391.94229 1932.15873,3393.1437 1968.47619,3387.5371 C1974.25397,3379.52768 1977.55556,3373.92108 1978.38095,3370.71731 C1979.20635,3367.51355 1979.20635,3363.50883 1978.38095,3358.70318 Z" id="Path-33-Copy-2" fill="#FFFFFF"></path> <path d="M2037.38095,3358.70318 C2018.39683,3356.30035 2004.77778,3355.49941 1996.52381,3356.30035 C1984.14286,3357.50177 1973,3371.91873 1973,3383.93286 C1973,3391.94229 1991.15873,3393.1437 2027.47619,3387.5371 C2033.25397,3379.52768 2036.55556,3373.92108 2037.38095,3370.71731 C2038.20635,3367.51355 2038.20635,3363.50883 2037.38095,3358.70318 Z" id="Path-33-Copy-3" fill="#FFFFFF"></path> <path d="M1977,3359 C1968.33333,3368.6 1964,3376.6 1964,3383" id="Path-34-Copy-2"></path> <path d="M2035,3359 C2026.33333,3368.6 2022,3376.6 2022,3383" id="Path-34-Copy-3"></path> </g> </g> </svg>