<svg width="157px" height="29px" viewBox="0 0 157 29" version="1.1" xmlns="http://www.w3.org/2000/svg" xmlns:xlink="http://www.w3.org/1999/xlink">
            <g id="Page-1" stroke="none" stroke-width="1" fill="none" fill-rule="evenodd">
                <g id="SVG-Layer" fill="#FFFFFF" fill-rule="nonzero">
                    <polygon id="Path" points="15.25 0 18.88 11.04 30.5 11.08 21.12 17.94 24.68 29.01 15.25 22.21 5.83 29.01 9.38 17.94 -5.32907052e-15 11.08 11.63 11.04"></polygon>
                    <polygon id="Path" points="46.7 0 50.33 11.04 61.95 11.08 52.57 17.94 56.13 29.01 46.7 22.21 37.27 29.01 40.83 17.94 31.45 11.08 43.07 11.04"></polygon>
                    <polygon id="Path" points="78.15 0 81.78 11.04 93.4 11.08 84.02 17.94 87.58 29.01 78.15 22.21 68.72 29.01 72.28 17.94 62.9 11.08 74.52 11.04"></polygon>
                    <polygon id="Path" points="109.6 0 113.22 11.04 124.85 11.08 115.47 17.94 119.02 29.01 109.6 22.21 100.17 29.01 103.73 17.94 94.35 11.08 105.97 11.04"></polygon>
                    <polygon id="Path" points="141.05 0 144.67 11.04 156.3 11.08 146.91 17.94 150.47 29.01 141.05 22.21 131.62 29.01 135.18 17.94 125.8 11.08 137.42 11.04"></polygon>
                </g>
            </g>
        </svg>